<?xml version="1.0" standalone="no"?>
<!DOCTYPE svg PUBLIC "-//W3C//DTD SVG 20010904//EN"
 "http://www.w3.org/TR/2001/REC-SVG-20010904/DTD/svg10.dtd">
<svg version="1.0" xmlns="http://www.w3.org/2000/svg"
 width="768.000000pt" height="768.000000pt" viewBox="0 0 768.000000 768.000000"
 preserveAspectRatio="xMidYMid meet">

<g transform="translate(0.000000,768.000000) scale(0.100000,-0.100000)"
fill="#000000" stroke="none">
<path d="M3700 7390 c-158 -19 -308 -74 -447 -166 -76 -49 -265 -233 -1377
-1343 -708 -707 -1338 -1340 -1398 -1406 -223 -243 -300 -429 -302 -725 -2
-308 86 -525 298 -735 183 -182 401 -288 625 -302 42 -2 86 -6 98 -9 l22 -4 4
-773 c3 -736 4 -776 24 -862 72 -314 254 -543 547 -685 114 -55 182 -75 311
-90 123 -14 3336 -14 3460 0 50 6 119 18 155 27 284 70 546 301 659 580 68
168 65 116 68 993 4 896 -4 820 84 820 185 0 419 88 582 220 361 290 486 779
310 1209 -79 193 -18 128 -1497 1609 -749 750 -1397 1393 -1441 1428 -212 171
-494 248 -785 214z m362 -4743 c150 -58 271 -164 335 -293 l38 -78 5 -395 c3
-218 2 -427 -2 -466 -6 -49 -20 -94 -48 -152 -69 -141 -217 -254 -390 -299
-85 -22 -235 -22 -320 0 -223 58 -393 224 -436 425 -20 95 -20 758 1 854 42
200 202 357 427 417 109 30 297 23 390 -13z"/>
</g>
</svg>
