<?xml version="1.0" standalone="no"?>
<!DOCTYPE svg PUBLIC "-//W3C//DTD SVG 20010904//EN"
 "http://www.w3.org/TR/2001/REC-SVG-20010904/DTD/svg10.dtd">
<svg version="1.0" xmlns="http://www.w3.org/2000/svg"
 width="200.000000pt" height="200.000000pt" viewBox="0 0 200.000000 200.000000"
 preserveAspectRatio="xMidYMid meet">

<g transform="translate(0.000000,200.000000) scale(0.100000,-0.100000)"
fill="#000000" stroke="none">
<path d="M224 1781 c-47 -21 -77 -59 -93 -116 -7 -26 -11 -168 -11 -405 1
-382 4 -414 47 -462 27 -31 92 -58 140 -58 l42 0 3 -106 c4 -159 8 -159 163
-4 121 121 143 154 109 167 -11 4 -44 -22 -108 -86 -50 -50 -94 -91 -98 -91
-4 0 -9 39 -10 88 l-3 87 -78 6 c-71 5 -81 8 -110 37 l-32 32 0 394 c0 385 1
395 21 423 40 54 26 53 637 53 631 0 620 1 651 -65 10 -20 16 -60 16 -104 0
-55 4 -73 15 -77 31 -12 45 15 45 88 0 107 -31 165 -105 199 -37 17 -78 19
-620 19 -544 0 -583 -2 -621 -19z"/>
<path d="M889 1411 c-59 -12 -102 -43 -126 -91 -23 -43 -23 -51 -23 -397 0
-388 1 -397 59 -446 47 -39 95 -48 243 -45 l133 3 0 25 0 25 -150 5 c-164 5
-192 14 -214 68 -8 20 -11 134 -9 381 l3 353 32 28 c44 40 77 42 520 38 369
-3 382 -4 410 -24 48 -36 52 -62 52 -412 1 -352 -2 -374 -55 -409 -21 -14 -55
-19 -139 -23 l-110 -5 -3 -89 -3 -90 -93 93 c-95 94 -128 110 -134 66 -2 -14
34 -57 123 -145 155 -155 159 -155 163 3 l3 105 87 4 c105 4 153 25 190 81
l27 40 3 343 c3 367 0 401 -44 454 -56 66 -47 65 -499 67 -225 1 -426 -2 -446
-6z"/>
<path d="M980 1095 c-7 -8 -10 -22 -6 -30 5 -13 50 -15 335 -15 344 0 351 1
329 43 -8 16 -34 17 -327 17 -270 0 -320 -2 -331 -15z"/>
<path d="M974 935 c-4 -8 -1 -22 6 -30 11 -13 61 -15 331 -15 293 0 319 1 327
18 22 41 15 42 -329 42 -285 0 -330 -2 -335 -15z"/>
<path d="M982 791 c-8 -5 -12 -17 -10 -27 3 -18 19 -19 329 -22 281 -2 328 0
339 13 10 12 10 18 0 30 -11 13 -60 15 -329 15 -174 0 -322 -4 -329 -9z"/>
</g>
</svg>
