<?xml version="1.0" standalone="no"?>
<!DOCTYPE svg PUBLIC "-//W3C//DTD SVG 20010904//EN"
 "http://www.w3.org/TR/2001/REC-SVG-20010904/DTD/svg10.dtd">
<svg version="1.0" xmlns="http://www.w3.org/2000/svg"
 width="225.000000pt" height="225.000000pt" viewBox="0 0 225.000000 225.000000"
 preserveAspectRatio="xMidYMid meet">

<g transform="translate(0.000000,225.000000) scale(0.100000,-0.100000)"
fill="#000000" stroke="none">
<path d="M1047 2130 c-38 -33 -57 -79 -57 -141 l0 -36 -82 -27 c-128 -42 -203
-88 -298 -185 -90 -91 -132 -158 -177 -284 -26 -69 -27 -83 -32 -347 l-6 -275
-98 -194 c-54 -107 -96 -202 -95 -210 5 -23 69 -29 335 -30 l233 -1 6 -27 c19
-87 59 -155 121 -207 62 -52 120 -71 218 -71 78 0 97 4 147 28 33 16 76 49
102 78 43 48 86 138 86 179 0 19 9 20 243 21 281 1 350 7 355 30 1 9 -42 107
-98 218 l-100 202 0 243 c0 232 -1 248 -26 332 -40 138 -86 216 -189 319 -99
99 -179 148 -302 185 l-73 22 0 36 c0 100 -47 162 -128 170 -44 4 -52 1 -85
-28z m106 -41 c32 -17 37 -28 37 -81 l0 -48 -65 0 -65 0 0 49 c0 42 4 53 26
70 31 24 37 25 67 10z m177 -225 c200 -66 355 -223 426 -429 26 -77 27 -88 32
-345 l4 -265 84 -174 c46 -96 84 -175 84 -177 0 -2 -378 -4 -840 -4 l-841 0
90 178 89 177 5 265 c4 239 6 272 26 335 75 235 262 405 505 461 92 21 234 12
336 -22z m55 -1466 c13 -12 -28 -108 -63 -149 -52 -60 -123 -93 -202 -94 -40
0 -83 7 -112 18 -62 24 -139 107 -160 173 l-16 49 57 6 c75 9 488 6 496 -3z"/>
<path d="M963 1722 c-131 -46 -218 -149 -271 -322 -33 -109 -37 -147 -15 -159
31 -16 43 1 59 80 28 138 98 256 182 310 39 25 67 33 180 55 17 4 22 10 20 27
-3 19 -10 22 -53 24 -29 2 -72 -5 -102 -15z"/>
</g>
</svg>
