<svg xmlns="http://www.w3.org/2000/svg" xmlns:xlink="http://www.w3.org/1999/xlink" version="1.1" width="256" height="256" viewBox="0 0 256 256" xml:space="preserve">

<defs>
</defs>
<g style="stroke: none; stroke-width: 0; stroke-dasharray: none; stroke-linecap: butt; stroke-linejoin: miter; stroke-miterlimit: 10; fill: none; fill-rule: nonzero; opacity: 1;" transform="translate(1.4065934065934016 1.4065934065934016) scale(2.81 2.81)" >
	<path d="M 40.363 36.646 h -9.602 c -0.552 0 -1 0.448 -1 1 s 0.448 1 1 1 h 9.602 c 0.552 0 1 -0.448 1 -1 S 40.916 36.646 40.363 36.646 z" style="stroke: none; stroke-width: 1; stroke-dasharray: none; stroke-linecap: butt; stroke-linejoin: miter; stroke-miterlimit: 10; fill: rgb(0,0,0); fill-rule: nonzero; opacity: 1;" transform=" matrix(1 0 0 1 0 0) " stroke-linecap="round" />
	<path d="M 40.363 42.548 h -9.602 c -0.552 0 -1 0.448 -1 1 s 0.448 1 1 1 h 9.602 c 0.552 0 1 -0.448 1 -1 S 40.916 42.548 40.363 42.548 z" style="stroke: none; stroke-width: 1; stroke-dasharray: none; stroke-linecap: butt; stroke-linejoin: miter; stroke-miterlimit: 10; fill: rgb(0,0,0); fill-rule: nonzero; opacity: 1;" transform=" matrix(1 0 0 1 0 0) " stroke-linecap="round" />
	<path d="M 40.363 48.451 h -9.602 c -0.552 0 -1 0.447 -1 1 s 0.448 1 1 1 h 9.602 c 0.552 0 1 -0.447 1 -1 S 40.916 48.451 40.363 48.451 z" style="stroke: none; stroke-width: 1; stroke-dasharray: none; stroke-linecap: butt; stroke-linejoin: miter; stroke-miterlimit: 10; fill: rgb(0,0,0); fill-rule: nonzero; opacity: 1;" transform=" matrix(1 0 0 1 0 0) " stroke-linecap="round" />
	<path d="M 45 30.772 H 28.514 c -1.869 0 -3.389 1.521 -3.389 3.389 v 18.815 c 0 1.869 1.521 3.39 3.389 3.39 h 11.591 l 4.153 4.589 c 0.013 0.014 0.031 0.019 0.045 0.032 c 0.073 0.073 0.157 0.133 0.251 0.181 c 0.021 0.011 0.039 0.026 0.061 0.035 c 0.009 0.004 0.016 0.011 0.025 0.014 c 0.117 0.045 0.239 0.066 0.359 0.066 s 0.243 -0.021 0.359 -0.066 c 0.009 -0.004 0.016 -0.01 0.025 -0.014 c 0.022 -0.009 0.04 -0.024 0.061 -0.035 c 0.095 -0.048 0.178 -0.108 0.251 -0.181 c 0.013 -0.013 0.032 -0.018 0.045 -0.032 l 4.153 -4.589 h 11.592 c 1.868 0 3.389 -1.521 3.389 -3.39 V 34.161 c 0 -1.869 -1.521 -3.389 -3.389 -3.389 H 45 z M 40.549 54.366 H 28.514 c -0.766 0 -1.389 -0.623 -1.389 -1.39 V 34.161 c 0 -0.766 0.623 -1.389 1.389 -1.389 H 44 v 24.917 l -2.709 -2.993 C 41.101 54.485 40.832 54.366 40.549 54.366 z M 62.875 34.161 v 18.815 c 0 0.767 -0.623 1.39 -1.389 1.39 H 49.451 c -0.282 0 -0.552 0.119 -0.741 0.329 L 46 57.689 V 32.772 h 15.486 C 62.252 32.772 62.875 33.395 62.875 34.161 z" style="stroke: none; stroke-width: 1; stroke-dasharray: none; stroke-linecap: butt; stroke-linejoin: miter; stroke-miterlimit: 10; fill: rgb(0,0,0); fill-rule: nonzero; opacity: 1;" transform=" matrix(1 0 0 1 0 0) " stroke-linecap="round" />
	<path d="M 59.238 36.646 h -9.602 c -0.553 0 -1 0.448 -1 1 s 0.447 1 1 1 h 9.602 c 0.553 0 1 -0.448 1 -1 S 59.791 36.646 59.238 36.646 z" style="stroke: none; stroke-width: 1; stroke-dasharray: none; stroke-linecap: butt; stroke-linejoin: miter; stroke-miterlimit: 10; fill: rgb(0,0,0); fill-rule: nonzero; opacity: 1;" transform=" matrix(1 0 0 1 0 0) " stroke-linecap="round" />
	<path d="M 59.238 42.548 h -9.602 c -0.553 0 -1 0.448 -1 1 s 0.447 1 1 1 h 9.602 c 0.553 0 1 -0.448 1 -1 S 59.791 42.548 59.238 42.548 z" style="stroke: none; stroke-width: 1; stroke-dasharray: none; stroke-linecap: butt; stroke-linejoin: miter; stroke-miterlimit: 10; fill: rgb(0,0,0); fill-rule: nonzero; opacity: 1;" transform=" matrix(1 0 0 1 0 0) " stroke-linecap="round" />
	<path d="M 59.238 48.451 h -9.602 c -0.553 0 -1 0.447 -1 1 s 0.447 1 1 1 h 9.602 c 0.553 0 1 -0.447 1 -1 S 59.791 48.451 59.238 48.451 z" style="stroke: none; stroke-width: 1; stroke-dasharray: none; stroke-linecap: butt; stroke-linejoin: miter; stroke-miterlimit: 10; fill: rgb(0,0,0); fill-rule: nonzero; opacity: 1;" transform=" matrix(1 0 0 1 0 0) " stroke-linecap="round" />
	<path d="M 19.237 55.066 v -4.901 c 0 -1.484 -0.737 -2.861 -1.971 -3.685 l -2.599 -1.735 c 0.745 -0.811 1.211 -1.882 1.211 -3.068 v -3.194 c 0 -2.51 -2.042 -4.551 -4.551 -4.551 h -0.522 c -2.509 0 -4.551 2.042 -4.551 4.551 v 3.194 c 0 1.184 0.465 2.254 1.209 3.065 l -2.6 1.737 c -1.232 0.824 -1.968 2.2 -1.968 3.683 v 4.903 c 0 0.553 0.448 1 1 1 h 14.341 C 18.79 56.066 19.237 55.619 19.237 55.066 z M 8.255 38.484 c 0 -1.407 1.144 -2.551 2.551 -2.551 h 0.522 c 1.407 0 2.551 1.145 2.551 2.551 v 3.194 c 0 1.407 -1.145 2.551 -2.551 2.551 h -0.522 c -1.407 0 -2.551 -1.145 -2.551 -2.551 V 38.484 z M 17.237 54.066 H 4.896 v -3.903 c 0 -0.813 0.404 -1.568 1.08 -2.021 l 3.292 -2.199 c 0.483 0.175 0.996 0.286 1.538 0.286 h 0.522 c 0.541 0 1.052 -0.111 1.534 -0.285 l 3.295 2.2 c 0.677 0.451 1.081 1.207 1.081 2.021 V 54.066 z" style="stroke: none; stroke-width: 1; stroke-dasharray: none; stroke-linecap: butt; stroke-linejoin: miter; stroke-miterlimit: 10; fill: rgb(0,0,0); fill-rule: nonzero; opacity: 1;" transform=" matrix(1 0 0 1 0 0) " stroke-linecap="round" />
	<path d="M 85.134 46.48 l -2.599 -1.735 c 0.745 -0.811 1.211 -1.882 1.211 -3.067 v -3.194 c 0 -2.51 -2.041 -4.551 -4.551 -4.551 h -0.522 c -2.51 0 -4.551 2.042 -4.551 4.551 v 3.194 c 0 1.184 0.465 2.255 1.209 3.065 l -2.599 1.737 c -1.232 0.824 -1.969 2.201 -1.969 3.683 v 4.903 c 0 0.553 0.447 1 1 1 h 14.341 c 0.553 0 1 -0.447 1 -1 v -4.901 C 87.104 48.681 86.367 47.304 85.134 46.48 z M 76.121 38.484 c 0 -1.407 1.145 -2.551 2.551 -2.551 h 0.522 c 1.406 0 2.551 1.145 2.551 2.551 v 3.194 c 0 1.407 -1.145 2.551 -2.551 2.551 h -0.522 c -1.406 0 -2.551 -1.145 -2.551 -2.551 V 38.484 z M 85.104 54.066 H 72.763 v -3.903 c 0 -0.813 0.404 -1.568 1.08 -2.021 l 3.291 -2.199 c 0.483 0.175 0.996 0.286 1.538 0.286 h 0.522 c 0.541 0 1.052 -0.111 1.534 -0.285 l 3.295 2.2 c 0.676 0.451 1.08 1.206 1.08 2.021 V 54.066 z" style="stroke: none; stroke-width: 1; stroke-dasharray: none; stroke-linecap: butt; stroke-linejoin: miter; stroke-miterlimit: 10; fill: rgb(0,0,0); fill-rule: nonzero; opacity: 1;" transform=" matrix(1 0 0 1 0 0) " stroke-linecap="round" />
	<path d="M 51.199 80.413 l -2.599 -1.734 c 0.745 -0.811 1.211 -1.882 1.211 -3.068 v -3.194 c 0 -2.51 -2.041 -4.551 -4.55 -4.551 h -0.522 c -2.509 0 -4.551 2.041 -4.551 4.551 v 3.194 c 0 1.184 0.465 2.255 1.209 3.065 l -2.599 1.737 c -1.232 0.824 -1.968 2.2 -1.968 3.683 V 89 c 0 0.553 0.448 1 1 1 h 14.341 c 0.553 0 1 -0.447 1 -1 v -4.901 C 53.171 82.615 52.435 81.238 51.199 80.413 z M 42.188 72.417 c 0 -1.406 1.144 -2.551 2.551 -2.551 h 0.522 c 1.406 0 2.55 1.145 2.55 2.551 v 3.194 c 0 1.407 -1.145 2.552 -2.55 2.552 h -0.522 c -1.407 0 -2.551 -1.145 -2.551 -2.552 V 72.417 z M 51.171 88 H 38.83 v -3.903 c 0 -0.813 0.404 -1.568 1.08 -2.021 l 3.291 -2.199 c 0.483 0.175 0.996 0.286 1.539 0.286 h 0.522 c 0.541 0 1.052 -0.111 1.534 -0.285 l 3.294 2.198 c 0.678 0.453 1.082 1.209 1.082 2.022 V 88 z" style="stroke: none; stroke-width: 1; stroke-dasharray: none; stroke-linecap: butt; stroke-linejoin: miter; stroke-miterlimit: 10; fill: rgb(0,0,0); fill-rule: nonzero; opacity: 1;" transform=" matrix(1 0 0 1 0 0) " stroke-linecap="round" />
	<path d="M 37.83 22.133 h 14.341 c 0.553 0 1 -0.448 1 -1 v -4.902 c 0 -1.483 -0.737 -2.86 -1.971 -3.684 l -2.6 -1.735 c 0.745 -0.811 1.211 -1.882 1.211 -3.067 V 4.551 c 0 -2.509 -2.041 -4.551 -4.55 -4.551 h -0.522 c -2.509 0 -4.551 2.042 -4.551 4.551 v 3.194 c 0 1.184 0.465 2.254 1.209 3.065 l -2.599 1.738 c -1.232 0.824 -1.968 2.201 -1.968 3.683 v 4.903 C 36.83 21.686 37.277 22.133 37.83 22.133 z M 42.188 4.551 C 42.188 3.144 43.332 2 44.739 2 h 0.522 c 1.406 0 2.55 1.144 2.55 2.551 v 3.194 c 0 1.407 -1.145 2.551 -2.55 2.551 h -0.522 c -1.407 0 -2.551 -1.144 -2.551 -2.551 V 4.551 z M 38.83 16.23 c 0 -0.813 0.403 -1.568 1.08 -2.02 l 3.292 -2.201 c 0.483 0.175 0.995 0.286 1.538 0.286 h 0.522 c 0.54 0 1.052 -0.111 1.533 -0.285 l 3.295 2.199 c 0.678 0.452 1.082 1.208 1.082 2.021 v 3.902 H 38.83 V 16.23 z" style="stroke: none; stroke-width: 1; stroke-dasharray: none; stroke-linecap: butt; stroke-linejoin: miter; stroke-miterlimit: 10; fill: rgb(0,0,0); fill-rule: nonzero; opacity: 1;" transform=" matrix(1 0 0 1 0 0) " stroke-linecap="round" />
	<path d="M 58.358 13.871 c 7.256 3.118 13.231 8.72 16.827 15.773 c 0.177 0.347 0.527 0.546 0.892 0.546 c 0.152 0 0.308 -0.035 0.453 -0.109 c 0.492 -0.251 0.688 -0.853 0.437 -1.345 c -3.807 -7.469 -10.135 -13.401 -17.819 -16.703 c -0.502 -0.217 -1.095 0.017 -1.313 0.524 C 57.616 13.065 57.851 13.653 58.358 13.871 z" style="stroke: none; stroke-width: 1; stroke-dasharray: none; stroke-linecap: butt; stroke-linejoin: miter; stroke-miterlimit: 10; fill: rgb(0,0,0); fill-rule: nonzero; opacity: 1;" transform=" matrix(1 0 0 1 0 0) " stroke-linecap="round" />
	<path d="M 13.47 30.082 c 0.146 0.074 0.3 0.109 0.453 0.109 c 0.364 0 0.715 -0.199 0.892 -0.546 c 3.596 -7.054 9.571 -12.656 16.827 -15.773 c 0.507 -0.218 0.742 -0.806 0.524 -1.314 c -0.219 -0.507 -0.806 -0.743 -1.314 -0.524 c -7.684 3.302 -14.012 9.234 -17.819 16.703 C 12.782 29.229 12.978 29.831 13.47 30.082 z" style="stroke: none; stroke-width: 1; stroke-dasharray: none; stroke-linecap: butt; stroke-linejoin: miter; stroke-miterlimit: 10; fill: rgb(0,0,0); fill-rule: nonzero; opacity: 1;" transform=" matrix(1 0 0 1 0 0) " stroke-linecap="round" />
	<path d="M 31.642 76.129 c -7.255 -3.117 -13.231 -8.72 -16.827 -15.773 c -0.251 -0.492 -0.853 -0.688 -1.345 -0.437 c -0.492 0.251 -0.688 0.853 -0.437 1.345 c 3.808 7.469 10.136 13.401 17.819 16.703 c 0.129 0.055 0.263 0.081 0.395 0.081 c 0.388 0 0.756 -0.227 0.919 -0.605 C 32.384 76.936 32.149 76.347 31.642 76.129 z" style="stroke: none; stroke-width: 1; stroke-dasharray: none; stroke-linecap: butt; stroke-linejoin: miter; stroke-miterlimit: 10; fill: rgb(0,0,0); fill-rule: nonzero; opacity: 1;" transform=" matrix(1 0 0 1 0 0) " stroke-linecap="round" />
	<path d="M 76.53 59.919 c -0.494 -0.253 -1.095 -0.056 -1.345 0.437 c -3.596 7.054 -9.571 12.655 -16.827 15.773 c -0.508 0.218 -0.742 0.807 -0.524 1.313 c 0.163 0.379 0.532 0.605 0.919 0.605 c 0.132 0 0.267 -0.026 0.395 -0.081 c 7.685 -3.303 14.013 -9.234 17.819 -16.703 C 77.218 60.771 77.022 60.17 76.53 59.919 z" style="stroke: none; stroke-width: 1; stroke-dasharray: none; stroke-linecap: butt; stroke-linejoin: miter; stroke-miterlimit: 10; fill: rgb(0,0,0); fill-rule: nonzero; opacity: 1;" transform=" matrix(1 0 0 1 0 0) " stroke-linecap="round" />
</g>
</svg>