<?xml version="1.0" standalone="no"?>
<!DOCTYPE svg PUBLIC "-//W3C//DTD SVG 20010904//EN"
 "http://www.w3.org/TR/2001/REC-SVG-20010904/DTD/svg10.dtd">
<svg version="1.0" xmlns="http://www.w3.org/2000/svg"
 width="250.000000pt" height="150.000000pt" viewBox="0 0 250.000000 150.000000"
 preserveAspectRatio="xMidYMid meet" fill="red">

<g transform="translate(0.000000,150.000000) scale(0.100000,-0.100000)"
fill="#000000" stroke="none">
<path d="M1140 1361 c-74 -20 -150 -58 -204 -103 -41 -33 -44 -48 -17 -72 18
-17 22 -15 80 28 108 79 230 108 365 86 76 -12 139 -41 210 -95 46 -35 49 -35
72 -20 13 8 24 22 24 30 0 8 -27 35 -60 59 -132 97 -311 130 -470 87z"/>
<path d="M1180 1188 c-30 -11 -74 -35 -98 -51 l-43 -31 25 -25 c23 -23 27 -24
43 -9 10 9 43 28 73 42 91 43 193 31 279 -32 l33 -25 24 25 25 24 -43 31
c-100 71 -216 90 -318 51z"/>
<path d="M830 1114 c0 -4 13 -21 29 -39 40 -46 51 -109 51 -299 0 -116 4 -175
14 -204 35 -99 110 -168 214 -198 53 -16 83 -11 50 7 -10 5 -30 31 -45 56 -26
45 -27 51 -33 257 -5 203 -7 213 -32 261 -34 65 -80 108 -148 139 -52 24 -100
34 -100 20z"/>
<path d="M1645 1091 c-73 -35 -116 -78 -149 -151 -23 -51 -25 -70 -31 -260 -5
-194 -7 -207 -31 -247 -13 -23 -32 -47 -42 -52 -33 -18 -3 -23 50 -7 104 30
179 99 214 198 10 29 14 88 14 204 0 190 11 253 51 299 16 18 29 35 29 39 0
14 -49 4 -105 -23z"/>
<path d="M1235 996 c-48 -21 -59 -40 -36 -60 18 -17 22 -17 43 -2 12 9 38 16
58 16 20 0 46 -7 58 -16 21 -15 25 -15 43 2 15 14 17 20 6 32 -32 39 -116 52
-172 28z"/>
<path d="M1262 838 c-16 -16 -15 -53 3 -68 19 -16 45 -10 61 15 26 39 -31 86
-64 53z"/>
</g>
</svg>
